<?xml version="1.0" encoding="iso-8859-1"?>
<!-- Generator: Adobe Illustrator 19.0.0, SVG Export Plug-In . SVG Version: 6.00 Build 0)  -->
<svg version="1.1" id="Layer_1" xmlns="http://www.w3.org/2000/svg" xmlns:xlink="http://www.w3.org/1999/xlink" x="0px" y="0px"
	 viewBox="0 0 512 512" style="enable-background:new 0 0 512 512;" xml:space="preserve">
<path style="fill:#E04F5F;" d="M156.144,117.192l-23.968-1.096c1.84-40.672,35.16-72.536,75.832-72.536h96
	c40.472,0,73.776,31.688,75.824,72.136l-23.968,1.216c-1.4-27.672-24.176-49.352-51.848-49.352h-96
	C180.184,67.56,157.408,89.36,156.144,117.192z"/>
<path d="M300,252.44v28c0,11.032-8.968,20-20,20h-48c-11.032,0-20-8.968-20-20v-28H16v184c0,17.6,14.4,32,32,32h416
	c17.6,0,32-14.4,32-32v-184H300z"/>
<rect x="236" y="204.44" width="40" height="71.504"/>
<path d="M480,113.768c-0.4-0.4-41.6-0.56-98.832-0.592c-12.688-0.008-26.16-0.008-40.168,0
	c-55.888,0.024-120.032,0.136-175.368,0.248c-14.048,0.032-27.528,0.064-40.16,0.088C70.768,113.656,32,113.768,32,113.768
	c-17.6,0-32,14.4-32,32v50.168c0,17.6,14.4,32,32,32h180v-27.504c0-11.032,8.968-20,20-20h48c11.032,0,20,8.968,20,20v27.504h180
	c17.6,0,32-14.4,32-32v-50.168C512,128.168,497.6,113.768,480,113.768z"/>
<g>
</g>
<g>
</g>
<g>
</g>
<g>
</g>
<g>
</g>
<g>
</g>
<g>
</g>
<g>
</g>
<g>
</g>
<g>
</g>
<g>
</g>
<g>
</g>
<g>
</g>
<g>
</g>
<g>
</g>
</svg>
