<?xml version="1.0" encoding="iso-8859-1"?>
<!-- Generator: Adobe Illustrator 19.0.0, SVG Export Plug-In . SVG Version: 6.00 Build 0)  -->
<svg version="1.1" id="Layer_1" xmlns="http://www.w3.org/2000/svg" xmlns:xlink="http://www.w3.org/1999/xlink" x="0px" y="0px"
	 viewBox="0 0 512 512" style="enable-background:new 0 0 512 512;" xml:space="preserve">
<g>
	<path style="fill:#E21B1B;" d="M0,329.702V206.383h91.456v20.8H24.904v27.352h61.919v20.8H24.904v33.551h68.904v20.8L0,329.702z"/>
	<path style="fill:#E21B1B;" d="M109.559,261.039v-21.704h86.232v21.704H109.559z M109.559,298.407v-21.799h86.232v21.776
		L109.559,298.407z"/>
	<path style="fill:#E21B1B;" d="M213.598,240.344h21.784v12.208c6.541-8.848,16.854-14.113,27.856-14.224
		c5.188-0.132,10.321,1.087,14.896,3.536c4.378,2.524,7.961,6.224,10.344,10.68c3.468-4.383,7.79-8.017,12.704-10.68
		c4.493-2.346,9.491-3.56,14.56-3.536c5.81-0.18,11.561,1.202,16.656,4c4.579,2.707,8.152,6.829,10.184,11.744
		c1.927,5.971,2.741,12.246,2.4,18.512v57.135h-23.584v-51.095c0.527-5.826-0.295-11.695-2.4-17.151
		c-2.211-3.382-6.072-5.311-10.104-5.048c-3.351,0.015-6.613,1.071-9.336,3.024c-3.027,2.178-5.247,5.298-6.312,8.872
		c-1.537,6.029-2.189,12.248-1.936,18.463v42.912h-23.68v-48.96c0.275-5.63-0.144-11.272-1.248-16.8
		c-0.662-2.246-2.042-4.213-3.928-5.6c-2.155-1.337-4.668-1.979-7.2-1.84c-3.499-0.045-6.927,0.977-9.832,2.928
		c-2.987,2.051-5.198,5.046-6.28,8.504c-1.53,6.007-2.166,12.208-1.888,18.4v43.423H213.6v-89.407H213.598z"/>
	<path style="fill:#E21B1B;" d="M446.517,266.767l-23.32,4.2c-0.464-4.027-2.357-7.755-5.336-10.504
		c-3.055-2.45-6.895-3.707-10.808-3.536c-5.384-0.222-10.574,2.026-14.096,6.104c-4.066,5.987-5.924,13.202-5.256,20.408
		c-0.721,7.867,1.152,15.754,5.336,22.455c3.472,4.341,8.797,6.778,14.352,6.568c4.023,0.161,7.957-1.212,11.008-3.839
		c3.392-3.617,5.517-8.238,6.056-13.168l23.2,3.96c-1.687,9.419-6.596,17.957-13.888,24.152c-7.965,5.785-17.674,8.662-27.504,8.152
		c-11.712,0.549-23.097-3.955-31.264-12.367c-8.2-9.46-12.38-21.75-11.648-34.248c-0.77-12.575,3.43-24.949,11.696-34.455
		c8.304-8.432,19.812-12.92,31.632-12.336c9.176-0.48,18.265,1.985,25.944,7.032C439.526,250.722,444.421,258.268,446.517,266.767z"
		/>
	<path style="fill:#E21B1B;" d="M511.996,243.928v13.728h-51.8c0.573-5.232,2.303-10.271,5.064-14.752
		c4.733-6.837,10.313-13.046,16.608-18.48c4.434-3.855,8.534-8.077,12.256-12.624c1.899-2.64,2.964-5.789,3.056-9.04
		c0.181-2.789-0.777-5.531-2.656-7.6c-4.261-3.593-10.506-3.539-14.704,0.128c-2.098,2.623-3.213,5.898-3.152,9.256l-14.719-1.472
		c0.185-6.724,3.172-13.065,8.239-17.488c5.025-3.673,11.139-5.548,17.36-5.32c6.55-0.376,12.985,1.836,17.92,6.16
		c4.274,3.916,6.652,9.484,6.528,15.28c0.012,3.391-0.617,6.755-1.856,9.912c-1.494,3.552-3.491,6.871-5.928,9.856
		c-2.977,3.511-6.21,6.798-9.672,9.832c-4.662,4.267-7.614,7.107-8.856,8.52c-1.146,1.261-2.159,2.635-3.024,4.104L511.996,243.928z
		"/>
</g>
<g>
</g>
<g>
</g>
<g>
</g>
<g>
</g>
<g>
</g>
<g>
</g>
<g>
</g>
<g>
</g>
<g>
</g>
<g>
</g>
<g>
</g>
<g>
</g>
<g>
</g>
<g>
</g>
<g>
</g>
</svg>
